<svg width="40" height="40" viewBox="0 0 40 40" fill="none" xmlns="http://www.w3.org/2000/svg">
<rect width="40" height="40" rx="5" fill="#70873A"/>
<path d="M5.67367 5.44497C5.26117 5.65122 5.27992 5.31997 5.27992 12.0325C5.27992 18.77 5.26117 18.42 5.68617 18.62C5.86742 18.7075 6.56742 18.72 11.9674 18.72C17.3674 18.72 18.0674 18.7075 18.2487 18.62C18.6737 18.42 18.6549 18.77 18.6549 12.0325C18.6549 5.29497 18.6737 5.64497 18.2487 5.44497C18.0674 5.35747 17.3737 5.34497 11.9549 5.34497C6.56117 5.34497 5.84867 5.35747 5.67367 5.44497ZM17.2799 12.0325V17.345H11.9674H6.65492V12.0325V6.71997H11.9674H17.2799V12.0325Z" fill="white"/>
<path d="M21.6737 5.44497C21.2612 5.65122 21.2799 5.31997 21.2799 12.0325C21.2799 18.77 21.2612 18.42 21.6862 18.62C21.8674 18.7075 22.5674 18.72 27.9674 18.72C33.3674 18.72 34.0674 18.7075 34.2487 18.62C34.6737 18.42 34.6549 18.77 34.6549 12.0325C34.6549 5.29497 34.6737 5.64497 34.2487 5.44497C34.0674 5.35747 33.3737 5.34497 27.9549 5.34497C22.5612 5.34497 21.8487 5.35747 21.6737 5.44497ZM33.2799 12.0325V17.345H27.9674H22.6549V12.0325V6.71997H27.9674H33.2799V12.0325Z" fill="white"/>
<path d="M5.67367 21.445C5.26117 21.6512 5.27992 21.32 5.27992 28.0325C5.27992 34.77 5.26117 34.42 5.68617 34.62C5.86742 34.7075 6.56742 34.72 11.9674 34.72C17.3674 34.72 18.0674 34.7075 18.2487 34.62C18.6737 34.42 18.6549 34.77 18.6549 28.0325C18.6549 21.295 18.6737 21.645 18.2487 21.445C18.0674 21.3575 17.3737 21.345 11.9549 21.345C6.56117 21.345 5.84867 21.3575 5.67367 21.445ZM17.2799 28.0325V33.345H11.9674H6.65492V28.0325V22.72H11.9674H17.2799V28.0325Z" fill="white"/>
<path d="M27.6736 21.4449C27.2861 21.6387 27.2799 21.6699 27.2799 24.6512V27.3449H24.5861C21.5924 27.3449 21.5674 27.3449 21.3799 27.7512C21.2549 28.0074 21.2549 28.0574 21.3799 28.3137C21.5674 28.7199 21.5924 28.7199 24.5861 28.7199H27.2799V31.4137C27.2799 34.4074 27.2799 34.4324 27.6861 34.6199C27.9424 34.7449 27.9924 34.7449 28.2486 34.6199C28.6549 34.4324 28.6549 34.4074 28.6549 31.4137V28.7199H31.3486C34.3424 28.7199 34.3674 28.7199 34.5549 28.3137C34.6799 28.0574 34.6799 28.0074 34.5549 27.7512C34.3674 27.3449 34.3424 27.3449 31.3486 27.3449H28.6549V24.6512C28.6549 21.6574 28.6549 21.6324 28.2486 21.4449C27.9924 21.3199 27.9236 21.3199 27.6736 21.4449Z" fill="white"/>
</svg>
