<svg width="40" height="40" viewBox="0 0 40 40" fill="none" xmlns="http://www.w3.org/2000/svg">
<rect width="40" height="40" rx="5" fill="#70873A"/>
<path d="M19.7686 6.07495C19.6749 6.1187 18.2874 8.4687 15.5999 13.1187C13.3874 16.9562 11.5061 20.2375 11.4186 20.4125C11.1561 20.9312 10.8249 21.9625 10.6749 22.7062C10.4936 23.625 10.4749 25.2937 10.6436 26.1562C11.0311 28.1187 11.8374 29.6937 13.1811 31.0875C16.2374 34.2562 21.0874 34.9125 24.8436 32.6562C27.2311 31.225 28.8061 28.95 29.3561 26.1562C29.5249 25.2937 29.5061 23.625 29.3249 22.7062C29.1749 21.9625 28.8436 20.9312 28.5811 20.4125C28.4936 20.2375 26.6124 16.9562 24.3999 13.1187C20.0249 5.53745 20.2311 5.84995 19.7686 6.07495ZM23.7624 14.0125C25.8061 17.5625 27.5561 20.6062 27.6436 20.7812C27.8811 21.2625 28.1624 22.1 28.3249 22.8187C28.5061 23.6562 28.5249 25.225 28.3561 26.075C27.8999 28.375 26.5311 30.4 24.5936 31.6375C23.7061 32.2125 22.6249 32.6437 21.5749 32.8562C20.7999 33.0125 19.1686 33.0062 18.4061 32.85C13.2436 31.7812 10.2686 26.575 12.0061 21.6437C12.1124 21.3437 12.2749 20.95 12.3561 20.7812C12.6124 20.275 19.9624 7.56245 19.9999 7.56245C20.0186 7.56245 21.7124 10.4687 23.7624 14.0125Z" fill="white"/>
<path d="M13.6562 24.1562C13.5312 24.275 13.5 24.3687 13.5 24.6187C13.5 25.7437 13.9688 27.2 14.6438 28.1812C14.9375 28.6125 15.7188 29.4 16.1813 29.7437C17.2 30.4937 18.6813 31 19.8625 31C20.2625 31 20.5 30.8125 20.5 30.5C20.5 30.15 20.2938 30.025 19.6562 29.9812C17.5 29.825 15.6813 28.4937 14.8813 26.4937C14.675 25.9875 14.5 25.1125 14.5 24.6125C14.5 24.2375 14.3063 24 14 24C13.8812 24 13.75 24.0562 13.6562 24.1562Z" fill="white"/>
</svg>
