<svg width="40" height="40" viewBox="0 0 40 40" fill="none" xmlns="http://www.w3.org/2000/svg">
<rect width="40" height="40" rx="5" fill="#70873A"/>
<path d="M11.515 4.06875C10.49 4.26875 9.60879 5.23125 9.45254 6.325C9.37129 6.85625 9.37129 31.0313 9.45254 31.5625C9.53379 32.1188 9.87754 32.8 10.2525 33.1313C10.5088 33.3563 11.0775 33.675 11.4088 33.775C11.5025 33.8063 11.515 33.9125 11.515 34.9063V36H13.14H14.765V34.9375V33.875H20.0775H25.39V34.9375V36H27.015H28.64V34.9063C28.64 33.9125 28.6525 33.8063 28.7525 33.775C29.0775 33.675 29.6463 33.3563 29.9025 33.1313C30.2775 32.8 30.6213 32.1188 30.7025 31.5625C30.7838 31.0313 30.7838 6.85625 30.7025 6.325C30.5463 5.2 29.665 4.26875 28.5838 4.0625C28.165 3.98125 11.9213 3.9875 11.515 4.06875ZM28.5525 5.15625C28.965 5.275 29.34 5.60625 29.5213 6.0125L29.6713 6.34375V18.9063C29.6713 29.0625 29.6588 31.5125 29.59 31.7C29.4588 32.075 29.1838 32.3938 28.8213 32.5938L28.4838 32.7813H20.0775H11.6713L11.3338 32.5938C10.9713 32.3938 10.6963 32.075 10.565 31.7C10.4963 31.5125 10.4838 29.0625 10.4838 18.9063V6.34375L10.6338 6.0125C10.815 5.61875 11.1838 5.28125 11.5775 5.15625C12.015 5.025 28.1025 5.01875 28.5525 5.15625ZM13.7025 34.4063V34.9375H13.1713H12.64V34.4063V33.875H13.1713H13.7025V34.4063ZM27.515 34.4063V34.9375H26.9838H26.4525V34.4063V33.875H26.9838H27.515V34.4063Z" fill="white"/>
<path d="M11.5589 6.1625C11.5339 6.1875 11.5151 6.43125 11.5151 6.7V7.1875H12.0776H12.6464L12.6276 6.66875L12.6089 6.15625L12.1089 6.1375C11.8276 6.13125 11.5839 6.1375 11.5589 6.1625Z" fill="white"/>
<path d="M19.2777 6.21879C18.4027 6.41254 17.4777 7.04379 16.9777 7.79379C16.8465 7.98754 16.659 8.39379 16.5527 8.68754C16.3965 9.13754 16.3715 9.31254 16.3652 9.84379C16.3652 10.9 16.7215 11.7688 17.4527 12.5C18.9027 13.9438 21.259 13.9438 22.7027 12.5C23.4277 11.775 23.7902 10.8875 23.7902 9.84379C23.784 9.31254 23.759 9.13754 23.6027 8.68754C23.3715 8.02504 23.0527 7.53754 22.5652 7.10004C21.684 6.30004 20.4402 5.96879 19.2777 6.21879ZM20.4777 7.25004C21.6152 7.43754 22.5465 8.37504 22.7027 9.48129C22.8777 10.775 22.084 12.0313 20.8527 12.4063C20.459 12.525 19.6965 12.525 19.3027 12.4063C18.3402 12.1125 17.5965 11.2438 17.459 10.25C17.2465 8.68129 18.384 7.31879 20.0152 7.19379C20.0652 7.19379 20.2715 7.21254 20.4777 7.25004Z" fill="white"/>
<path d="M19.6842 8.3375C18.9717 8.53125 18.5029 9.1375 18.5029 9.85625C18.5029 10.3062 18.6342 10.6438 18.9404 10.9625C19.2654 11.3 19.5904 11.4375 20.0779 11.4375C20.5654 11.4375 20.8904 11.3 21.2154 10.9625C21.5217 10.6438 21.6529 10.3062 21.6529 9.8625C21.6529 8.825 20.6717 8.06875 19.6842 8.3375ZM20.2654 9.375C20.3967 9.375 20.5779 9.6625 20.5779 9.86875C20.5779 10.3188 20.0529 10.55 19.7217 10.2375C19.5592 10.0875 19.5279 9.725 19.6654 9.55C19.7592 9.41875 20.0154 9.3125 20.1279 9.35C20.1779 9.3625 20.2404 9.375 20.2654 9.375Z" fill="white"/>
<path d="M27.5589 6.1625C27.5339 6.1875 27.5151 6.43125 27.5151 6.7V7.1875H28.0776H28.6464L28.6276 6.66875L28.6089 6.15625L28.1089 6.1375C27.8276 6.13125 27.5839 6.1375 27.5589 6.1625Z" fill="white"/>
<path d="M18.6588 14.7875C16.1525 15.2063 13.9463 16.7625 12.6463 19.0313C11.9338 20.2813 11.5775 21.6438 11.5713 23.1625C11.5713 24.55 11.8275 25.7 12.415 26.9063C13.9713 30.0875 17.2963 31.9875 20.7775 31.6813C23.8213 31.4188 26.3588 29.6875 27.7275 26.95C28.9525 24.5125 28.8588 21.3938 27.5088 19.0313C26.19 16.7313 23.99 15.1938 21.4338 14.7875C20.7025 14.6688 19.3713 14.6688 18.6588 14.7875ZM21.765 15.9313C23.9338 16.475 25.6588 17.8063 26.69 19.75C27.7838 21.8063 27.7963 24.4875 26.715 26.5875C25.4213 29.1 22.9088 30.6375 20.0775 30.6375C16.415 30.6375 13.4213 28.1188 12.7275 24.4625C12.5775 23.65 12.6338 22.1875 12.8463 21.375C13.3963 19.275 14.7775 17.55 16.6775 16.5813C17.5088 16.1563 18.0275 15.9938 19.14 15.7875C19.2275 15.775 19.7338 15.7688 20.265 15.7813C20.9838 15.7938 21.3713 15.8375 21.765 15.9313Z" fill="white"/>
<path d="M18.815 16.9375C16.1712 17.4938 14.19 19.5625 13.765 22.2063C13.64 22.9563 13.715 24.2063 13.9212 24.9063C14.6775 27.4938 16.8525 29.3188 19.4712 29.55C20.6212 29.6563 21.7337 29.4688 22.7462 29C23.4525 28.6688 23.8962 28.3625 24.4962 27.7938C25.7212 26.6188 26.365 25.2 26.4337 23.5188C26.4712 22.5938 26.4025 21.9938 26.1587 21.2563C25.54 19.3625 24.2087 17.9563 22.315 17.2125C21.315 16.8188 19.8962 16.7063 18.815 16.9375ZM21.4212 18.0313C21.965 18.175 22.9837 18.7 23.4337 19.0625C24.2275 19.7 24.915 20.75 25.2025 21.75C25.39 22.4063 25.44 23.5625 25.3025 24.225C24.89 26.2813 23.3275 27.8938 21.2962 28.3813C18.74 28.9875 16.0712 27.5813 15.1087 25.125C14.7275 24.15 14.6587 22.7625 14.9462 21.7625C15.5025 19.8438 17.09 18.375 19.0525 17.9688C19.5962 17.8563 20.89 17.8875 21.4212 18.0313Z" fill="white"/>
<path d="M19.2276 20.6875C17.7151 21.225 17.0151 22.8938 17.6963 24.3438C18.4651 26 20.6588 26.3563 21.9713 25.05C23.1338 23.8875 22.9026 21.8438 21.5026 20.9625C20.8651 20.5625 19.9088 20.4438 19.2276 20.6875ZM20.5901 21.6875C20.9026 21.775 21.4151 22.25 21.5463 22.575C21.6026 22.725 21.6526 23 21.6526 23.1875C21.6526 23.8063 21.3651 24.2938 20.8213 24.5938C19.9901 25.0438 18.9776 24.675 18.6026 23.7813C18.4713 23.4625 18.4776 22.9125 18.6088 22.575C18.7338 22.2688 19.2463 21.775 19.5401 21.6938C19.8088 21.6125 20.3151 21.6125 20.5901 21.6875Z" fill="white"/>
<path d="M11.5275 31.2L11.5463 31.7188H12.0775H12.6088L12.6275 31.2L12.6463 30.6875H12.0775H11.5088L11.5275 31.2Z" fill="white"/>
<path d="M27.5275 31.2L27.5463 31.7188H28.0775H28.6088L28.6275 31.2L28.6463 30.6875H28.0775H27.5088L27.5275 31.2Z" fill="white"/>
<path d="M5.47114 17.4063C5.22114 17.5125 5.09614 17.8125 5.19614 18.0563C5.30239 18.3063 6.94614 19.9188 7.14614 19.9688C7.49614 20.0563 7.82739 19.725 7.77114 19.3438C7.75239 19.175 5.97114 17.3938 5.78989 17.3563C5.71489 17.3438 5.57114 17.3688 5.47114 17.4063Z" fill="white"/>
<path d="M34.3527 17.3625C34.284 17.3688 33.809 17.8 33.2965 18.3125C32.434 19.175 32.3652 19.2625 32.3652 19.475C32.3652 19.65 32.409 19.7375 32.5402 19.85C32.734 20.0188 32.8902 20.0375 33.1277 19.9125C33.3965 19.7688 34.9402 18.175 34.984 17.9938C35.0715 17.65 34.7215 17.3 34.3527 17.3625Z" fill="white"/>
<path d="M4.80264 22.8187C4.67764 22.9187 4.64014 23 4.64014 23.175C4.64639 23.675 4.85264 23.75 6.19639 23.75C7.40889 23.75 7.61514 23.7063 7.74014 23.4C7.83389 23.1687 7.80889 23.0375 7.62139 22.825C7.49639 22.6938 7.45889 22.6875 6.23389 22.6875C5.04639 22.6875 4.95889 22.6938 4.80264 22.8187Z" fill="white"/>
<path d="M32.5341 22.825C32.3466 23.0375 32.3216 23.1687 32.4154 23.4C32.5404 23.7063 32.7466 23.75 33.9591 23.75C35.3029 23.75 35.5091 23.675 35.5154 23.175C35.5154 23 35.4779 22.9187 35.3529 22.8187C35.1966 22.6938 35.1091 22.6875 33.9216 22.6875C32.6966 22.6875 32.6591 22.6938 32.5341 22.825Z" fill="white"/>
<path d="M6.09003 27.3937C5.11503 28.375 5.05253 28.475 5.21503 28.7687C5.32128 28.975 5.45878 29.0562 5.69628 29.0625C5.87753 29.0625 6.00253 28.9688 6.77753 28.2C7.64003 27.3562 7.86503 27.0562 7.78378 26.8312C7.70253 26.5938 7.49628 26.4375 7.26503 26.4375C7.05878 26.4375 6.96503 26.5125 6.09003 27.3937Z" fill="white"/>
<path d="M32.5337 26.575C32.2087 26.9438 32.2837 27.1 33.2525 28.0813C34.2775 29.1188 34.4587 29.2125 34.8025 28.9125C34.9337 28.8 34.9775 28.7125 34.9775 28.5375C34.9775 28.325 34.9087 28.2375 34.0462 27.375C33.19 26.5125 33.09 26.4375 32.8837 26.4375C32.7337 26.4375 32.6212 26.4813 32.5337 26.575Z" fill="white"/>
</svg>
