<svg width="50" height="30" viewBox="0 0 50 30" fill="none" xmlns="http://www.w3.org/2000/svg">
<circle cx="35" cy="15" r="15" fill="#70873A"/>
<path fill-rule="evenodd" clip-rule="evenodd" d="M0 15.3757C0 15.21 0.0794694 15.051 0.220925 14.9338C0.36238 14.8166 0.554234 14.7507 0.754282 14.7507L32.4235 14.7508L29.1846 12.0683C29.043 11.9509 28.9634 11.7918 28.9634 11.6258C28.9634 11.4598 29.043 11.3006 29.1846 11.1833C29.3263 11.0659 29.5184 11 29.7187 11C29.919 11 30.1111 11.0659 30.2527 11.1833L34.7784 14.9333C34.8486 14.9913 34.9044 15.0603 34.9424 15.1362C34.9804 15.2122 35 15.2936 35 15.3758C35 15.458 34.9804 15.5394 34.9424 15.6153C34.9044 15.6913 34.8486 15.7602 34.7784 15.8183L30.2527 19.5683C30.1111 19.6856 29.919 19.7516 29.7187 19.7516C29.5184 19.7516 29.3263 19.6856 29.1846 19.5683C29.043 19.4509 28.9634 19.2918 28.9634 19.1258C28.9634 18.9598 29.043 18.8006 29.1846 18.6833L32.4235 16.0008L0.754282 16.0007C0.554234 16.0007 0.36238 15.9349 0.220925 15.8177C0.0794694 15.7005 0 15.5415 0 15.3757Z" fill="url(#paint0_linear_1875_1445)"/>
<defs>
<linearGradient id="paint0_linear_1875_1445" x1="0" y1="15" x2="35" y2="15" gradientUnits="userSpaceOnUse">
<stop offset="0.520839" stop-color="#70873A"/>
<stop offset="0.707399" stop-color="white"/>
</linearGradient>
</defs>
</svg>
