<svg width="50" height="30" viewBox="0 0 50 30" fill="none" xmlns="http://www.w3.org/2000/svg">
<circle r="15" transform="matrix(-1 0 0 1 15 15)" fill="#70873A"/>
<path fill-rule="evenodd" clip-rule="evenodd" d="M50 15.3757C50 15.21 49.9205 15.051 49.7791 14.9338C49.6376 14.8166 49.4458 14.7507 49.2457 14.7507L17.5765 14.7508L20.8154 12.0683C20.957 11.9509 21.0366 11.7918 21.0366 11.6258C21.0366 11.4598 20.957 11.3006 20.8154 11.1833C20.6737 11.0659 20.4816 11 20.2813 11C20.081 11 19.8889 11.0659 19.7473 11.1833L15.2216 14.9333C15.1514 14.9913 15.0956 15.0603 15.0576 15.1362C15.0196 15.2122 15 15.2936 15 15.3758C15 15.458 15.0196 15.5394 15.0576 15.6153C15.0956 15.6913 15.1514 15.7602 15.2216 15.8183L19.7473 19.5683C19.8889 19.6856 20.081 19.7516 20.2813 19.7516C20.4816 19.7516 20.6737 19.6856 20.8154 19.5683C20.957 19.4509 21.0366 19.2918 21.0366 19.1258C21.0366 18.9598 20.957 18.8006 20.8154 18.6833L17.5765 16.0008L49.2457 16.0007C49.4458 16.0007 49.6376 15.9349 49.7791 15.8177C49.9205 15.7005 50 15.5415 50 15.3757Z" fill="url(#paint0_linear_1875_1448)"/>
<defs>
<linearGradient id="paint0_linear_1875_1448" x1="50" y1="15" x2="15" y2="15" gradientUnits="userSpaceOnUse">
<stop offset="0.520839" stop-color="#70873A"/>
<stop offset="0.707399" stop-color="white"/>
</linearGradient>
</defs>
</svg>
