<svg width="30" height="30" viewBox="0 0 30 30" fill="none" xmlns="http://www.w3.org/2000/svg">
<path d="M15 3.01343C10.857 3.01343 7.5 6.35693 7.5 10.4984C7.5 17.6594 15 26.9984 15 26.9984C15 26.9984 22.5 17.6579 22.5 10.4984C22.5 6.35843 19.143 3.01343 15 3.01343ZM15 14.6399C13.9259 14.6399 12.8957 14.2132 12.1362 13.4537C11.3767 12.6942 10.95 11.6641 10.95 10.5899C10.95 9.5158 11.3767 8.48567 12.1362 7.72615C12.8957 6.96662 13.9259 6.53993 15 6.53993C16.0741 6.53993 17.1043 6.96662 17.8638 7.72615C18.6233 8.48567 19.05 9.5158 19.05 10.5899C19.05 11.6641 18.6233 12.6942 17.8638 13.4537C17.1043 14.2132 16.0741 14.6399 15 14.6399Z" fill="url(#paint0_linear_1759_452)"/>
<defs>
<linearGradient id="paint0_linear_1759_452" x1="7.5" y1="15.0059" x2="22.5" y2="15.0059" gradientUnits="userSpaceOnUse">
<stop stop-color="#76B852"/>
<stop offset="1" stop-color="#8DC26F"/>
</linearGradient>
</defs>
</svg>
