<svg width="40" height="40" viewBox="0 0 40 40" fill="none" xmlns="http://www.w3.org/2000/svg">
<rect width="40" height="40" rx="5" fill="#70873A"/>
<path d="M14.2861 5.76242C14.0923 5.97492 14.1548 6.25617 14.4611 6.60617C15.0798 7.31242 15.2298 8.03117 14.9111 8.71867C14.8173 8.90617 14.5173 9.31242 14.2423 9.61867C13.1673 10.8062 12.9486 11.8374 13.5173 12.9937C13.6361 13.2374 13.8861 13.5999 14.0673 13.7999C14.3423 14.1062 14.4423 14.1687 14.6048 14.1687C14.8736 14.1687 15.0548 13.9937 15.0548 13.7312C15.0548 13.5624 14.9923 13.4374 14.7736 13.1937C14.3486 12.7124 14.1673 12.2937 14.1673 11.8187C14.1673 11.2812 14.3798 10.8624 15.0048 10.1687C16.0673 8.99367 16.2861 7.95617 15.7173 6.80617C15.5986 6.56242 15.3548 6.20617 15.1798 6.00617C14.8923 5.69367 14.8298 5.64992 14.6236 5.64992C14.4736 5.64992 14.3486 5.69367 14.2861 5.76242Z" fill="white"/>
<path d="M19.9111 5.76242C19.7173 5.97492 19.7798 6.25617 20.0861 6.60617C20.7048 7.31242 20.8548 8.03117 20.5361 8.71867C20.4423 8.90617 20.1423 9.31242 19.8673 9.61867C18.7923 10.8062 18.5736 11.8374 19.1423 12.9937C19.2611 13.2374 19.5111 13.5999 19.6923 13.7999C19.9673 14.1062 20.0673 14.1687 20.2298 14.1687C20.4986 14.1687 20.6798 13.9937 20.6798 13.7312C20.6798 13.5624 20.6173 13.4374 20.3986 13.1937C19.9736 12.7124 19.7923 12.2937 19.7923 11.8187C19.7923 11.2812 20.0048 10.8624 20.6298 10.1687C21.6923 8.99367 21.9111 7.95617 21.3423 6.80617C21.2236 6.56242 20.9798 6.20617 20.8048 6.00617C20.5173 5.69367 20.4548 5.64992 20.2486 5.64992C20.0986 5.64992 19.9736 5.69367 19.9111 5.76242Z" fill="white"/>
<path d="M25.5361 5.76242C25.3423 5.97492 25.4048 6.25617 25.7111 6.60617C26.3298 7.31242 26.4798 8.03117 26.1611 8.71867C26.0673 8.90617 25.7673 9.31242 25.4923 9.61867C24.4173 10.8062 24.1986 11.8374 24.7673 12.9937C24.8861 13.2374 25.1361 13.5999 25.3173 13.7999C25.5923 14.1062 25.6923 14.1687 25.8548 14.1687C26.1236 14.1687 26.3048 13.9937 26.3048 13.7312C26.3048 13.5624 26.2423 13.4374 26.0236 13.1937C25.5986 12.7124 25.4173 12.2937 25.4173 11.8187C25.4173 11.2812 25.6298 10.8624 26.2548 10.1687C27.3173 8.99367 27.5361 7.95617 26.9673 6.80617C26.8486 6.56242 26.6048 6.20617 26.4298 6.00617C26.1423 5.69367 26.0798 5.64992 25.8736 5.64992C25.7236 5.64992 25.5986 5.69367 25.5361 5.76242Z" fill="white"/>
<path d="M17.1983 14.15C16.9295 14.2562 16.8483 14.475 16.8983 14.975C16.9858 15.85 17.2295 16.4937 17.6545 16.9625C17.8108 17.1312 17.8545 17.2187 17.7983 17.2375C17.7483 17.25 17.417 17.3375 17.0545 17.4312C15.4108 17.85 13.867 18.6875 12.4233 19.9375C11.7108 20.5562 11.142 21.175 10.4608 22.0812C10.017 22.6687 9.91077 22.7687 9.56077 22.9437C9.16702 23.15 9.14827 23.15 8.26701 23.15H7.36702L7.09202 22.9375C6.10452 22.1875 5.14827 22.1562 4.52327 22.85C4.19202 23.2187 4.06077 23.5937 4.01077 24.3187C3.92327 25.5625 4.37327 26.4375 5.21077 26.6875C5.76077 26.8437 6.27952 26.7062 7.00452 26.2062C7.34202 25.975 7.39202 25.9625 7.82952 25.9625H8.29202L8.08577 26.5125C7.97327 26.8125 7.79202 27.4187 7.67952 27.8687C7.56702 28.3125 7.47327 28.6875 7.46077 28.7C7.45452 28.7062 7.27952 28.7562 7.07952 28.8125C5.91702 29.1125 4.97952 29.9625 4.72327 30.9437C4.66702 31.175 4.57327 31.3312 4.38577 31.5125C4.07952 31.8125 3.96702 32.125 4.01077 32.5312C4.07952 33.1187 4.43577 33.6125 4.97952 33.8812L5.33577 34.0562L9.96076 34.075C12.5045 34.0875 14.6795 34.075 14.792 34.0562C15.1858 33.9812 15.367 33.6 15.1545 33.3C15.067 33.1875 14.9233 33.1812 10.292 33.15C5.69827 33.1187 5.51702 33.1125 5.32327 32.9937C5.10452 32.8687 4.91077 32.5312 4.94202 32.35C4.96077 32.25 5.86076 32.2437 19.992 32.2437C34.1233 32.2437 35.0233 32.25 35.042 32.35C35.0795 32.5312 34.8608 32.9 34.6545 33.0125C34.4733 33.1125 33.8045 33.1187 25.4483 33.1375L16.4358 33.15L16.3108 33.3125C16.142 33.5312 16.1483 33.6687 16.3295 33.8812L16.4795 34.0562H25.567H34.6483L35.0045 33.8812C35.617 33.5812 35.9545 33.0562 35.9608 32.3937C35.9608 32.05 35.9358 31.9437 35.792 31.7312C35.5483 31.3625 35.3108 31.275 34.5545 31.275C34.2045 31.275 33.9295 31.2562 33.942 31.225C34.3608 30.4125 34.3358 30.5187 34.3295 29.3375C34.3295 28.7375 34.292 27.975 34.2483 27.65C33.5295 22.0187 30.3483 18.5937 24.7483 17.4312C24.0233 17.2812 23.917 17.2875 23.7295 17.45C23.5795 17.575 23.5795 17.975 23.7295 18.1C23.7858 18.1562 24.2045 18.275 24.6483 18.3687C28.2733 19.1312 30.9295 21.05 32.242 23.8562C32.717 24.8687 33.142 26.35 33.2795 27.4625L33.317 27.8062L31.8858 26.3812C30.8608 25.3687 30.417 24.9625 30.3108 24.9625C30.2358 24.9625 30.0858 25.05 29.9795 25.15C29.8295 25.3062 29.7983 25.375 29.8358 25.5125C29.8608 25.6187 30.492 26.3 31.5795 27.4C33.392 29.2312 33.4295 29.2812 33.4295 29.8812C33.4295 30.2375 33.142 30.7687 32.8358 30.975C32.6983 31.075 32.4295 31.1812 32.242 31.2125C32.0295 31.25 30.767 31.2687 29.0233 31.2625L26.1545 31.2437L26.0795 30.8687C25.892 29.95 25.5233 29.35 24.8795 28.9187C24.417 28.6062 24.042 28.4812 23.292 28.3875C22.8108 28.325 22.7295 28.3312 22.5858 28.425C22.317 28.6 22.2795 28.7625 22.3545 29.3562C22.4358 29.9812 22.6045 30.4875 22.867 30.8937C22.967 31.0562 23.0545 31.2125 23.0545 31.2312C23.0545 31.2562 22.642 31.275 22.1295 31.275H21.2108L20.3858 30.4437C19.9358 29.9937 19.5233 29.5312 19.467 29.4187C19.4108 29.3062 19.367 29.0937 19.367 28.9375C19.367 28.6937 19.4045 28.6125 19.592 28.4C19.867 28.0937 20.4233 27.825 21.1233 27.6437C21.792 27.475 23.592 27.4125 24.6295 27.5187C25.6295 27.625 26.767 27.8625 27.6795 28.1625L28.4608 28.4187L29.0858 29.0312C29.4295 29.3687 29.7795 29.6687 29.867 29.7C30.0608 29.775 30.392 29.6562 30.4545 29.4937C30.567 29.1937 30.4983 29.0875 29.5983 28.1625C28.6108 27.15 28.417 26.8937 28.0545 26.1375C27.7545 25.5125 27.567 24.8062 27.5108 24.1062C27.4545 23.3687 27.5358 23.3625 28.2358 24.05C28.692 24.4937 28.8233 24.5875 28.9858 24.5875C29.2358 24.5875 29.4295 24.3937 29.4295 24.1437C29.4295 23.9812 29.3358 23.85 28.8608 23.3625C28.2295 22.725 28.0108 22.5875 27.6108 22.5875C26.992 22.5875 26.5545 23.0937 26.5545 23.8125C26.5545 24.6687 26.892 26 27.2983 26.75C27.3983 26.9375 27.467 27.0875 27.4483 27.0875C27.4358 27.0875 27.2045 27.0312 26.9358 26.9625C25.6733 26.6437 24.917 26.5562 23.242 26.5625C22.0233 26.5625 21.5483 26.5812 21.2233 26.6562C20.8358 26.7437 20.8045 26.7437 20.842 26.6562C21.1295 25.9687 21.2045 25.6 21.2045 24.775C21.2108 24.0562 21.1858 23.8625 21.067 23.4625C20.5483 21.8062 19.317 20.6312 17.5858 20.1375C17.1608 20.0187 16.9358 19.9937 16.0858 19.9937C14.942 19.9937 14.4545 20.0937 13.4733 20.525C13.1733 20.6562 12.942 20.7375 12.9608 20.7062C12.9858 20.675 13.2358 20.4687 13.5233 20.2437C14.9233 19.15 16.5358 18.4187 18.2233 18.1187C18.5295 18.0625 19.2733 17.9937 19.892 17.9625C20.5045 17.925 21.1733 17.8562 21.3858 17.8C22.717 17.4562 23.4358 16.525 23.5858 14.9562C23.6295 14.5125 23.6233 14.475 23.4733 14.3C23.3233 14.125 23.292 14.1187 22.8545 14.1375C22.3108 14.1562 21.767 14.2812 21.3233 14.5C20.9983 14.6562 20.442 15.1375 20.317 15.3687C20.2483 15.4937 20.2483 15.4875 20.142 15.3375C19.9295 15.0312 19.5045 14.6625 19.1733 14.5062C18.5983 14.225 17.5108 14.0312 17.1983 14.15ZM18.717 15.3437C19.2483 15.5937 19.592 16.0812 19.717 16.7375L19.7608 16.9812L19.492 16.9375C19.1108 16.875 18.5795 16.6 18.3545 16.3437C18.1233 16.0812 17.9483 15.7062 17.892 15.3437L17.8483 15.0687L18.092 15.1125C18.2233 15.1375 18.5108 15.2375 18.717 15.3437ZM22.592 15.35C22.4608 16.1812 21.8295 16.8062 20.992 16.9375L20.7233 16.9812L20.767 16.7375C20.792 16.6062 20.8983 16.3125 21.0108 16.0875C21.2358 15.6375 21.5858 15.3437 22.1108 15.1875C22.6045 15.0312 22.642 15.0437 22.592 15.35ZM17.4608 21.0875C18.3233 21.3625 19.017 21.8187 19.4733 22.4125C20.667 23.9562 20.5608 25.925 19.2108 27.3875C18.967 27.6625 18.7108 27.9625 18.6545 28.0625L18.5483 28.2437L17.4733 28.25C16.4858 28.25 16.3545 28.2687 15.842 28.425C14.8045 28.7375 14.1045 29.1562 13.3545 29.9L12.8733 30.3812L12.6858 29.9875C12.2358 29.0312 11.3858 28.5 10.067 28.3687C9.69827 28.3312 9.58577 28.3437 9.45451 28.425C9.22952 28.575 9.19202 28.7375 9.24827 29.3187C9.30452 29.9562 9.49827 30.5437 9.77326 30.9375C9.89201 31.1062 9.96702 31.25 9.93577 31.2625C9.77952 31.3125 9.12327 31.1312 8.89827 30.975C8.56077 30.7437 8.30452 30.2375 8.30452 29.8062C8.30452 29.375 8.46077 28.5 8.65452 27.8062C8.91077 26.9187 9.25452 26.025 9.34827 26.025C9.55452 26.025 9.95451 26.3187 10.7608 27.05C11.6295 27.8375 12.417 28.4125 12.9483 28.65C13.2045 28.7625 13.267 28.7687 13.4108 28.7C13.5045 28.6562 13.6233 28.5437 13.6733 28.4562C13.817 28.2 13.667 27.975 13.1545 27.7C12.5858 27.3875 12.2108 27.1 11.3108 26.2812C9.97951 25.075 9.86076 25.025 8.17952 25.025H7.01077L6.66702 25.2937C6.47327 25.4437 6.16702 25.6312 5.99202 25.7062C5.69202 25.8375 5.64202 25.8375 5.43577 25.7625C5.07952 25.6312 4.96077 25.325 4.96077 24.525C4.96077 23.975 4.97952 23.8312 5.09202 23.65C5.38577 23.15 5.72952 23.1625 6.54827 23.7187L7.11077 24.1L8.25452 24.075C9.60452 24.05 9.75451 24.0062 10.6795 23.375C13.3858 21.525 13.9733 21.2062 15.1233 20.9625C15.617 20.8625 16.967 20.9312 17.4608 21.0875ZM18.1983 29.1875C18.3233 29.2125 18.4295 29.25 18.4295 29.2812C18.4295 29.3125 18.492 29.4937 18.5608 29.6937C18.667 29.9687 18.817 30.175 19.2483 30.6187C19.5545 30.9375 19.8045 31.2125 19.8045 31.2312C19.8045 31.2562 18.367 31.275 16.617 31.275H13.4233L13.4983 31.1375C13.6295 30.8875 14.517 30.0625 14.8858 29.8437C15.3608 29.5625 15.9233 29.3437 16.4233 29.2437C16.867 29.1562 17.8108 29.125 18.1983 29.1875ZM10.9608 29.5187C11.5108 29.7625 11.9295 30.325 12.0295 30.9625L12.0733 31.2312L11.8295 31.1875C11.4545 31.1187 10.9858 30.8812 10.7483 30.6437C10.5108 30.4062 10.2733 29.9375 10.2045 29.5625L10.1608 29.3187L10.4358 29.3625C10.5858 29.3875 10.8233 29.4562 10.9608 29.5187ZM23.9983 29.4875C24.4358 29.6687 24.7233 29.9437 24.9233 30.35C25.0233 30.5687 25.1295 30.85 25.1545 30.9875L25.1983 31.2312L24.9545 31.1875C24.4983 31.1062 23.9358 30.7875 23.7233 30.4812C23.5108 30.1812 23.317 29.7125 23.3108 29.4687C23.3045 29.3312 23.3233 29.325 23.542 29.3625C23.6795 29.3812 23.8795 29.4375 23.9983 29.4875ZM7.38577 30.0812C7.41077 30.3937 7.51077 30.6812 7.79202 31.225C7.80452 31.2562 7.32327 31.275 6.71702 31.275C5.99827 31.275 5.61702 31.25 5.61702 31.2125C5.61702 31.0875 5.86702 30.6562 6.06702 30.425C6.35452 30.1 6.97327 29.7375 7.27952 29.7187C7.32327 29.7125 7.36077 29.8687 7.38577 30.0812Z" fill="white"/>
</svg>
