<svg width="18" height="18" viewBox="0 0 18 18" fill="none" xmlns="http://www.w3.org/2000/svg">
<path d="M7.60914 10.3201C8.65289 11.3789 9.91579 12.1964 11.3091 12.7151L13.1941 11.2151C13.25 11.1766 13.3163 11.156 13.3841 11.156C13.452 11.156 13.5183 11.1766 13.5741 11.2151L17.0741 13.4701C17.207 13.55 17.3195 13.6597 17.4027 13.7905C17.4859 13.9213 17.5375 14.0697 17.5535 14.2239C17.5695 14.3781 17.5495 14.534 17.4949 14.6791C17.4403 14.8242 17.3528 14.9546 17.2391 15.0601L15.5991 16.6801C15.3643 16.9122 15.0756 17.0825 14.7589 17.1758C14.4422 17.2692 14.1073 17.2827 13.7841 17.2151C10.5602 16.5493 7.58871 14.9899 5.20914 12.7151C2.88238 10.4177 1.27228 7.49454 0.574143 4.30011C0.505176 3.98193 0.51957 3.65133 0.615931 3.34035C0.712291 3.02937 0.887351 2.74855 1.12414 2.52511L2.82414 0.885114C2.92934 0.777007 3.05764 0.694101 3.19942 0.642603C3.3412 0.591104 3.49279 0.572348 3.64285 0.587738C3.7929 0.603129 3.93754 0.652267 4.06591 0.731474C4.19429 0.810681 4.30308 0.917903 4.38414 1.04511L6.71414 4.50011C6.75433 4.55437 6.77602 4.6201 6.77602 4.68761C6.77602 4.75513 6.75433 4.82086 6.71414 4.87511L5.17914 6.72011C5.71193 8.08558 6.54201 9.31532 7.60914 10.3201Z" fill="white"/>
</svg>
