<svg width="48" height="50" viewBox="0 0 48 50" fill="none" xmlns="http://www.w3.org/2000/svg">
<path d="M3.19948 0.175781C1.96901 0.791016 2.25222 2.67578 3.59987 2.89062L3.98073 2.95898L4.00026 7.23633L4.02956 11.5137L9.37136 7.92969L14.7229 4.3457V3.65234V2.94922L15.0647 2.89062C15.5432 2.80273 16.0608 2.31445 16.1878 1.8457C16.3831 1.13281 15.9827 0.371094 15.2796 0.107422C15.094 0.0390625 13.0823 0 9.2737 0C4.01003 0 3.51198 0.00976562 3.19948 0.175781Z" fill="white"/>
<path d="M38.404 0.12683C38.0036 0.312377 37.8279 0.527221 37.4665 1.29871C36.9099 2.49988 36.988 3.62292 37.6911 4.59949L37.9841 5.00964L37.779 5.43933C37.2224 6.60144 37.9353 7.80261 39.1267 7.68542C39.8298 7.6073 40.3083 7.12878 40.699 6.09363C41.0701 5.09753 40.9138 3.95495 40.2888 3.19324L39.9861 2.81238L40.2204 2.31433C40.6306 1.45496 40.4841 0.771361 39.8005 0.263549C39.4783 0.0194082 38.7849 -0.0391855 38.404 0.12683Z" fill="white"/>
<path d="M22.7305 2.51945C22.5449 2.62688 17.6426 5.88859 11.8418 9.78508C4.60547 14.6386 1.22656 16.9726 1.08008 17.1874C0.865234 17.4999 0.855469 17.5976 0.855469 19.5312C0.855469 21.4745 0.865234 21.5624 1.08008 21.8847C1.19727 22.0702 1.45117 22.2948 1.63672 22.3925C1.95898 22.5488 3.16016 22.5585 23.4824 22.539L44.9863 22.5097L45.25 22.3046C45.8945 21.8261 45.9238 21.7382 45.9531 19.7851C45.9922 17.6366 45.9336 17.3241 45.3574 16.8456C44.7715 16.3671 24.3125 2.63664 23.9316 2.48039C23.502 2.29485 23.1309 2.30461 22.7305 2.51945ZM24.5762 8.83781C26.4902 9.2968 27.9844 10.7226 28.5508 12.6464C28.7754 13.4179 28.7754 14.707 28.5508 15.4784C27.8184 17.9589 25.5625 19.5702 23.0625 19.4042C20.2305 19.2089 18.043 16.8847 18.043 14.0624C18.043 10.6347 21.2656 8.05656 24.5762 8.83781Z" fill="white"/>
<path d="M22.7298 11.709C21.3138 12.1387 20.5814 13.7208 21.1771 15.0391C22.2611 17.4317 25.7962 16.6797 25.7962 14.0626C25.7962 12.4512 24.2337 11.2501 22.7298 11.709Z" fill="white"/>
<path d="M44.6539 4.15051C44.1852 4.40442 44.068 4.5509 43.736 5.27356C43.1793 6.46496 43.2477 7.54895 43.9313 8.49621L44.234 8.91614L44.0289 9.34582C43.4723 10.5079 44.1852 11.7091 45.3766 11.5919C46.0797 11.5138 46.5582 11.0353 46.9489 10.0001C47.3199 9.00403 47.1637 7.86145 46.5485 7.1095L46.2555 6.7384L46.4703 6.32825C47.0172 5.26379 46.4899 4.15051 45.3766 4.03332C45.0934 4.01379 44.8492 4.05286 44.6539 4.15051Z" fill="white"/>
<path d="M3.19922 26.8066V28.125H23.4141H43.6289V26.8066V25.4883H23.4141H3.19922V26.8066Z" fill="white"/>
<path d="M3.19922 32.3242V33.5938H23.4141H43.6289V32.3242V31.0547H23.4141H3.19922V32.3242Z" fill="white"/>
<path d="M3.19922 37.793V39.0625H6.32422H9.44922V37.793V36.5234H6.32422H3.19922V37.793Z" fill="white"/>
<path d="M12.3789 43.2617V50H15.6016H18.8242V43.2617V36.5234H15.6016H12.3789V43.2617Z" fill="white"/>
<path d="M21.7539 37.793V39.0625H23.4141H25.0742V37.793V36.5234H23.4141H21.7539V37.793Z" fill="white"/>
<path d="M28.0039 40.5273V44.5312H31.2266H34.4492V40.5273V36.5234H31.2266H28.0039V40.5273Z" fill="white"/>
<path d="M37.3789 37.793V39.0625H40.5039H43.6289V37.793V36.5234H40.5039H37.3789V37.793Z" fill="white"/>
<path d="M3.19922 43.2617V44.5312H6.32422H9.44922V43.2617V41.9922H6.32422H3.19922V43.2617Z" fill="white"/>
<path d="M21.7539 43.2617V44.5312H23.4141H25.0742V43.2617V41.9922H23.4141H21.7539V43.2617Z" fill="white"/>
<path d="M37.3789 43.2617V44.5312H40.5039H43.6289V43.2617V41.9922H40.5039H37.3789V43.2617Z" fill="white"/>
<path d="M3.19922 48.2324C3.19922 48.8672 3.23828 49.0527 3.42383 49.3262C3.84375 49.9707 4.01953 50 6.89062 50H9.44922V48.7305V47.4609H6.32422H3.19922V48.2324Z" fill="white"/>
<path d="M21.7539 48.7305V50L32.1934 49.9805C42.5742 49.9512 42.6426 49.9512 42.9063 49.7461C43.4336 49.3555 43.5606 49.082 43.6094 48.2422L43.6582 47.4609H32.7012H21.7539V48.7305Z" fill="white"/>
</svg>
