<svg width="16" height="24" viewBox="0 0 16 24" fill="none" xmlns="http://www.w3.org/2000/svg">
<path d="M7.50469 0C3.3591 0 0 3.34559 0 7.48968C0 14.6552 7.50469 24 7.50469 24C7.50469 24 15.0094 14.6537 15.0094 7.48968C15.0094 3.34709 11.6503 0 7.50469 0ZM7.50469 11.6338C6.42989 11.6338 5.39911 11.2068 4.63912 10.4468C3.87912 9.68682 3.45216 8.65604 3.45216 7.58124C3.45216 6.50644 3.87912 5.47566 4.63912 4.71566C5.39911 3.95567 6.42989 3.52871 7.50469 3.52871C8.57949 3.52871 9.61027 3.95567 10.3703 4.71566C11.1303 5.47566 11.5572 6.50644 11.5572 7.58124C11.5572 8.65604 11.1303 9.68682 10.3703 10.4468C9.61027 11.2068 8.57949 11.6338 7.50469 11.6338Z" fill="#70873A"/>
</svg>
