<svg width="40" height="40" viewBox="0 0 40 40" fill="none" xmlns="http://www.w3.org/2000/svg">
<rect width="40" height="40" rx="5" fill="#70873A"/>
<path d="M4.63594 7.68146C4.42969 7.88771 4.31094 8.71271 4.36094 9.54396C4.40469 10.2002 4.50469 10.6315 4.75469 11.2127L4.91719 11.6002L4.75469 12.0877C4.45469 13.0065 4.22344 14.2752 4.07969 15.8252C3.97344 17.0002 3.97344 22.144 4.07969 23.2627C4.24219 24.8877 4.46719 26.1252 4.78594 27.094L4.91719 27.4877L4.76094 27.844C4.39844 28.6502 4.26094 29.7315 4.39844 30.6627C4.49219 31.3127 4.50469 31.344 4.72344 31.4565C4.87344 31.5315 4.99219 31.5377 5.39219 31.4877C6.37969 31.3565 7.41719 30.9565 8.12344 30.4252C8.29219 30.3002 8.46719 30.169 8.51094 30.1502C8.55469 30.1252 9.04219 30.2127 9.60469 30.3502C12.4734 31.0565 16.4672 31.5002 19.9672 31.5002C23.4672 31.5002 27.4609 31.0565 30.3297 30.3502C30.8922 30.2127 31.3797 30.1252 31.4234 30.1502C31.4672 30.169 31.6422 30.3002 31.8109 30.4252C32.5172 30.9565 33.5547 31.3565 34.5422 31.4877C34.9422 31.5377 35.0609 31.5315 35.2109 31.4565C35.4297 31.344 35.4422 31.3127 35.5359 30.6627C35.6734 29.7315 35.5359 28.6502 35.1734 27.844L35.0172 27.4877L35.1484 27.094C35.4672 26.1252 35.6922 24.8877 35.8547 23.2627C35.9609 22.144 35.9609 17.0002 35.8547 15.8252C35.7109 14.2752 35.4797 13.0065 35.1797 12.0877L35.0172 11.6002L35.1797 11.2127C35.4297 10.6315 35.5297 10.2002 35.5734 9.54396C35.6234 8.71271 35.5047 7.88771 35.2984 7.68146C35.1547 7.53771 35.1172 7.53146 34.6984 7.56896C33.7109 7.65646 32.5172 8.11896 31.7422 8.69396L31.3547 8.98146L30.7734 8.82521C28.2422 8.13771 23.2547 7.54396 19.9672 7.54396C16.6797 7.54396 11.6922 8.13771 9.16094 8.82521L8.57969 8.98146L8.19219 8.69396C7.41719 8.11896 6.22344 7.65646 5.23594 7.56896C4.81719 7.53146 4.77969 7.53771 4.63594 7.68146ZM23.3734 8.63771C26.3984 8.88771 29.0672 9.30646 30.7359 9.78771C31.0984 9.89396 31.4484 9.98146 31.5109 9.98146C31.5797 9.98146 31.8422 9.81271 32.0984 9.61271C32.7609 9.08146 33.5484 8.71896 34.3547 8.57521C34.5797 8.53146 34.5859 8.53771 34.6297 8.76271C34.6859 9.08146 34.6172 9.94396 34.4922 10.3565C34.4359 10.544 34.3047 10.8752 34.1984 11.0877L34.0047 11.4815L34.1984 12.0877C34.5547 13.1815 34.7547 14.244 34.9172 15.8252C35.0234 16.9315 35.0297 22.0877 34.9172 23.2002C34.7547 24.8377 34.5234 26.0315 34.1609 27.069C33.9922 27.5377 33.9984 27.5877 34.1859 27.944C34.4984 28.5315 34.6109 29.019 34.6172 29.7752C34.6234 30.1565 34.6047 30.4877 34.5797 30.5127C34.5109 30.5815 33.5297 30.3065 33.0609 30.0877C32.8234 29.969 32.4109 29.7065 32.1484 29.494C31.8234 29.2315 31.6109 29.1065 31.4984 29.1065C31.4047 29.1065 31.0422 29.1877 30.6922 29.2877C28.0984 30.0377 23.6609 30.5627 19.9672 30.5627C16.2734 30.5627 11.8359 30.0377 9.24219 29.2877C8.89219 29.1877 8.52969 29.1065 8.43594 29.1065C8.32344 29.1065 8.11094 29.2315 7.78594 29.494C7.52344 29.7065 7.11719 29.969 6.87344 30.0877C6.40469 30.3065 5.42344 30.5815 5.35469 30.5127C5.32969 30.4877 5.31094 30.1565 5.31719 29.7752C5.32344 29.019 5.43594 28.5315 5.74844 27.944C5.93594 27.5877 5.94219 27.5377 5.77344 27.069C5.41094 26.0315 5.17969 24.8377 5.01719 23.2002C4.90469 22.0877 4.91094 16.9315 5.01719 15.8252C5.17969 14.244 5.37969 13.1815 5.73594 12.0877L5.92969 11.4815L5.73594 11.0877C5.62969 10.8752 5.49844 10.544 5.44219 10.3565C5.31719 9.94396 5.24844 9.08146 5.30469 8.76271C5.34844 8.53771 5.35469 8.53146 5.57969 8.57521C6.38594 8.71896 7.17344 9.08146 7.83594 9.61271C8.09219 9.81271 8.35469 9.98146 8.42344 9.98146C8.48594 9.98146 8.83594 9.89396 9.19844 9.78771C11.1797 9.21271 14.7234 8.71896 18.2484 8.51896C19.1359 8.46896 22.2172 8.54396 23.3734 8.63771Z" fill="white"/>
<path d="M31.2919 11.1065C31.1107 11.1815 30.8544 11.5877 30.4044 12.5127C30.0482 13.2377 29.5294 14.6815 29.5294 14.9315C29.5294 15.2627 29.8919 15.494 30.1919 15.344C30.3482 15.2752 30.4107 15.1502 30.6544 14.419C30.8107 13.9565 31.0482 13.344 31.1857 13.0565C31.4669 12.444 31.4419 12.4252 31.8107 13.4815C32.5419 15.6002 32.8232 17.4502 32.7607 19.7752C32.7232 21.1377 32.6419 21.869 32.3982 23.1065C32.1544 24.3502 31.5607 26.3565 31.4669 26.2565C31.3607 26.144 30.7794 24.3315 30.5357 23.3627C30.1357 21.7815 30.0169 20.8127 30.0044 19.2002C30.0044 18.444 30.0107 17.5752 30.0294 17.2752C30.0607 16.7502 30.0544 16.7127 29.9107 16.6002C29.7169 16.4377 29.4544 16.4502 29.2919 16.6252C29.0982 16.8315 29.0044 17.9752 29.0482 19.5127C29.1294 22.0377 29.6669 24.394 30.7919 27.1002C31.0732 27.7627 31.1419 27.8815 31.3044 27.9502C31.5919 28.0752 31.8044 27.969 31.9732 27.619C32.6607 26.1502 33.2669 23.9627 33.5669 21.8565C33.7044 20.8565 33.7482 18.8377 33.6607 17.7002C33.4919 15.594 32.9294 13.4752 32.0669 11.6502C31.7982 11.0815 31.6357 10.969 31.2919 11.1065Z" fill="white"/>
<path d="M21.692 13.1752C21.5795 13.2627 21.5295 13.3627 21.5295 13.5064C21.5295 13.8439 21.6545 13.9439 22.117 13.9814L22.5233 14.0127L22.0295 14.6689C21.4858 15.3877 21.417 15.6189 21.6545 15.8564C21.767 15.9689 21.8608 15.9814 22.692 15.9814C23.192 15.9814 23.6545 15.9564 23.717 15.9189C23.7795 15.8877 23.8545 15.7752 23.892 15.6752C24.017 15.3189 23.7295 15.0439 23.2358 15.0439C23.0858 15.0439 22.967 15.0252 22.967 15.0064C22.967 14.9877 23.1358 14.7502 23.342 14.4814C23.8983 13.7502 23.9795 13.5939 23.9108 13.4002C23.792 13.0877 23.6358 13.0439 22.7108 13.0439C21.942 13.0439 21.842 13.0564 21.692 13.1752Z" fill="white"/>
<path d="M17.7796 15.6252C17.4608 15.7877 17.4233 16.2627 17.7171 16.4189C17.7796 16.4564 18.2171 16.4814 18.6796 16.4814C19.1483 16.4814 19.5296 16.4939 19.5296 16.5127C19.5296 16.5252 19.0796 17.1689 18.5296 17.9377C17.6858 19.1252 17.5296 19.3752 17.5296 19.5627C17.5296 19.9627 17.6108 19.9814 19.2296 19.9814C20.5733 19.9814 20.6608 19.9752 20.7796 19.8564C20.9483 19.6877 20.9421 19.3502 20.7733 19.1939C20.6608 19.0939 20.5108 19.0689 19.7796 19.0439L18.9171 19.0127L19.9108 17.6189C21.0046 16.0814 21.0671 15.9314 20.7421 15.6752C20.5858 15.5502 20.4983 15.5439 19.2546 15.5439C18.3233 15.5439 17.8921 15.5689 17.7796 15.6252Z" fill="white"/>
<path d="M12.8109 19.6002C12.5047 19.7252 12.4109 20.119 12.6234 20.3565C12.7297 20.469 12.8297 20.4815 14.0734 20.494L15.4172 20.5127L13.9984 22.1315C13.2172 23.0252 12.5547 23.819 12.5234 23.9002C12.4609 24.069 12.5297 24.2877 12.6859 24.419C12.8547 24.5627 16.2922 24.594 16.6172 24.4565C16.8547 24.3565 16.9484 24.1627 16.8797 23.8877C16.8109 23.6127 16.6484 23.5752 15.2984 23.544L14.0422 23.5127L14.9172 22.5127C16.9047 20.244 16.9047 20.244 16.9047 20.019C16.9047 19.8877 16.8547 19.769 16.7734 19.694C16.6484 19.5815 16.5109 19.5752 14.7859 19.5627C13.7672 19.5565 12.8797 19.5752 12.8109 19.6002Z" fill="white"/>
</svg>
