<svg width="0" height="0" class="hidden">
 <symbol fill="none" xmlns="http://www.w3.org/2000/svg" viewBox="0 0 30 9" id="icon-arrow-more">
    <path fill-rule="evenodd" clip-rule="evenodd" d="M0 4.37573C0 4.20997 0.0658485 4.051 0.183059 3.93379C0.300269 3.81658 0.45924 3.75073 0.625 
    3.75073L26.8662 3.75079L24.1824 1.06829C24.0651 0.950932 23.9992 0.791759 23.9992 0.62579C23.9992 0.45982 24.0651 0.300648 24.1824 
    0.18329C24.2998 0.0659313 24.459 0 24.625 0C24.7909 0 24.9501 0.0659313 25.0675 0.18329L28.8175 3.93329C28.8757 3.99135 28.9218 4.06032 
    28.9533 4.13625C28.9849 4.21218 29.0011 4.29358 29.0011 4.37579C29.0011 4.458 28.9849 4.5394 28.9533 4.61533C28.9218 4.69126 28.8757 4.76023 
    28.8175 4.81829L25.0675 8.56829C24.9501 8.68565 24.7909 8.75158 24.625 8.75158C24.459 8.75158 24.2998 8.68565 24.1824 8.56829C24.0651 8.45093 
    23.9992 8.29176 23.9992 8.12579C23.9992 7.95982 24.0651 7.80065 24.1824 7.68329L26.8662 5.00079L0.625 5.00073C0.45924 5.00073 0.300269 4.93489 
    0.183059 4.81767C0.0658485 4.70046 0 4.54149 0 4.37573Z"></path>
  </symbol>
</svg>

