<svg width="21" height="20" viewBox="0 0 21 20" fill="none" xmlns="http://www.w3.org/2000/svg">
<path d="M8.48927 11.6793C9.74114 12.9493 11.2559 13.9298 12.9271 14.5519L15.1879 12.7528C15.255 12.7066 15.3344 12.6819 15.4158 12.6819C15.4972 12.6819 15.5767 12.7066 15.6437 12.7528L19.8416 15.4575C20.001 15.5533 20.1359 15.6848 20.2357 15.8417C20.3355 15.9987 20.3974 16.1766 20.4166 16.3616C20.4358 16.5465 20.4118 16.7334 20.3463 16.9075C20.2809 17.0816 20.1758 17.238 20.0395 17.3645L18.0725 19.3075C17.7908 19.5859 17.4446 19.7902 17.0647 19.9021C16.6849 20.0141 16.2832 20.0303 15.8956 19.9492C12.0288 19.1506 8.46476 17.2803 5.61069 14.5519C2.81996 11.7964 0.888795 8.29031 0.0514459 4.4589C-0.0312734 4.07728 -0.0140087 3.68075 0.101567 3.30776C0.217142 2.93477 0.427109 2.59795 0.711119 2.32996L2.75011 0.362933C2.87629 0.23327 3.03016 0.133832 3.20021 0.072064C3.37027 0.0102964 3.55209 -0.0122 3.73207 0.00625935C3.91205 0.0247187 4.08552 0.0836555 4.23949 0.178657C4.39347 0.273658 4.52395 0.402261 4.62118 0.554838L7.4158 4.69879C7.464 4.76386 7.49002 4.84269 7.49002 4.92367C7.49002 5.00465 7.464 5.08349 7.4158 5.14856L5.57471 7.36147C6.21374 8.99922 7.20934 10.4742 8.48927 11.6793Z" fill="#70873A"/>
</svg>
